<mxfile host="app.diagrams.net" modified="2024-06-11T08:01:55.788Z" agent="Mozilla/5.0 (Windows NT 10.0; Win64; x64) AppleWebKit/537.36 (KHTML, like Gecko) Chrome/125.0.0.0 Safari/537.36" etag="9-EFGDHQDKwAsjf6TpWH" version="24.5.2" type="github">
  <diagram name="Page-1" id="e7e014a7-5840-1c2e-5031-d8a46d1fe8dd">
    <mxGraphModel dx="880" dy="1286" grid="1" gridSize="10" guides="1" tooltips="1" connect="1" arrows="1" fold="1" page="1" pageScale="1" pageWidth="1169" pageHeight="826" background="none" math="0" shadow="0">
      <root>
        <mxCell id="0" />
        <mxCell id="1" parent="0" />
        <mxCell id="MSERcW_ycNlpQCD9DCjj-41" value="Actor" style="shape=umlActor;verticalLabelPosition=bottom;verticalAlign=top;html=1;outlineConnect=0;" vertex="1" parent="1">
          <mxGeometry x="420" y="-40" width="30" height="60" as="geometry" />
        </mxCell>
        <mxCell id="6" value="" style="edgeStyle=elbowEdgeStyle;elbow=horizontal;verticalAlign=bottom;endArrow=open;endSize=8;strokeColor=#FF0000;endFill=1;rounded=0;exitX=0.5;exitY=0;exitDx=0;exitDy=0;exitPerimeter=0;" parent="1" source="MSERcW_ycNlpQCD9DCjj-41" edge="1">
          <mxGeometry x="264.5" y="168" as="geometry">
            <mxPoint x="490" y="80" as="targetPoint" />
            <mxPoint x="500" y="-40" as="sourcePoint" />
            <Array as="points">
              <mxPoint x="490" y="10" />
            </Array>
          </mxGeometry>
        </mxCell>
        <mxCell id="MSERcW_ycNlpQCD9DCjj-45" value="" style="edgeStyle=orthogonalEdgeStyle;rounded=0;orthogonalLoop=1;jettySize=auto;html=1;" edge="1" parent="1" source="MSERcW_ycNlpQCD9DCjj-43">
          <mxGeometry relative="1" as="geometry">
            <mxPoint x="490" y="160" as="targetPoint" />
          </mxGeometry>
        </mxCell>
        <mxCell id="MSERcW_ycNlpQCD9DCjj-43" value="Take Input File" style="rounded=0;whiteSpace=wrap;html=1;" vertex="1" parent="1">
          <mxGeometry x="430" y="80" width="120" height="40" as="geometry" />
        </mxCell>
        <mxCell id="MSERcW_ycNlpQCD9DCjj-47" value="" style="edgeStyle=orthogonalEdgeStyle;rounded=0;orthogonalLoop=1;jettySize=auto;html=1;" edge="1" parent="1" source="MSERcW_ycNlpQCD9DCjj-48" target="MSERcW_ycNlpQCD9DCjj-46">
          <mxGeometry relative="1" as="geometry">
            <mxPoint x="490" y="200" as="sourcePoint" />
            <Array as="points">
              <mxPoint x="490" y="180" />
            </Array>
          </mxGeometry>
        </mxCell>
        <mxCell id="MSERcW_ycNlpQCD9DCjj-56" value="" style="edgeStyle=orthogonalEdgeStyle;rounded=0;orthogonalLoop=1;jettySize=auto;html=1;" edge="1" parent="1" source="MSERcW_ycNlpQCD9DCjj-46" target="MSERcW_ycNlpQCD9DCjj-55">
          <mxGeometry relative="1" as="geometry" />
        </mxCell>
        <mxCell id="MSERcW_ycNlpQCD9DCjj-46" value="&lt;div style=&quot;&quot;&gt;Pass the document to the model&lt;br&gt;&lt;/div&gt;" style="rounded=0;whiteSpace=wrap;html=1;align=center;" vertex="1" parent="1">
          <mxGeometry x="430" y="320" width="120" height="50" as="geometry" />
        </mxCell>
        <mxCell id="MSERcW_ycNlpQCD9DCjj-49" value="" style="edgeStyle=orthogonalEdgeStyle;rounded=0;orthogonalLoop=1;jettySize=auto;html=1;" edge="1" parent="1" target="MSERcW_ycNlpQCD9DCjj-48">
          <mxGeometry relative="1" as="geometry">
            <mxPoint x="490" y="200" as="sourcePoint" />
            <mxPoint x="490" y="320" as="targetPoint" />
          </mxGeometry>
        </mxCell>
        <mxCell id="MSERcW_ycNlpQCD9DCjj-48" value="Check file is text file or not" style="rhombus;whiteSpace=wrap;html=1;" vertex="1" parent="1">
          <mxGeometry x="403.75" y="160" width="172.5" height="100" as="geometry" />
        </mxCell>
        <mxCell id="MSERcW_ycNlpQCD9DCjj-50" value="False" style="text;html=1;align=center;verticalAlign=middle;whiteSpace=wrap;rounded=0;fontStyle=1" vertex="1" parent="1">
          <mxGeometry x="420" y="270" width="80" height="40" as="geometry" />
        </mxCell>
        <mxCell id="MSERcW_ycNlpQCD9DCjj-51" value="" style="endArrow=classic;html=1;rounded=0;" edge="1" parent="1" target="MSERcW_ycNlpQCD9DCjj-53">
          <mxGeometry width="50" height="50" relative="1" as="geometry">
            <mxPoint x="576.25" y="209.5" as="sourcePoint" />
            <mxPoint x="666.25" y="209.5" as="targetPoint" />
            <Array as="points">
              <mxPoint x="576.25" y="209.5" />
            </Array>
          </mxGeometry>
        </mxCell>
        <mxCell id="MSERcW_ycNlpQCD9DCjj-53" value="" style="rounded=0;whiteSpace=wrap;html=1;" vertex="1" parent="1">
          <mxGeometry x="660" y="189.75" width="120" height="40.5" as="geometry" />
        </mxCell>
        <mxCell id="MSERcW_ycNlpQCD9DCjj-54" value="&lt;b&gt;True&lt;/b&gt;" style="text;html=1;align=center;verticalAlign=middle;whiteSpace=wrap;rounded=0;" vertex="1" parent="1">
          <mxGeometry x="585" y="180" width="60" height="30" as="geometry" />
        </mxCell>
        <mxCell id="MSERcW_ycNlpQCD9DCjj-58" value="" style="edgeStyle=orthogonalEdgeStyle;rounded=0;orthogonalLoop=1;jettySize=auto;html=1;" edge="1" parent="1" source="MSERcW_ycNlpQCD9DCjj-55" target="MSERcW_ycNlpQCD9DCjj-57">
          <mxGeometry relative="1" as="geometry" />
        </mxCell>
        <mxCell id="MSERcW_ycNlpQCD9DCjj-55" value="Call selected method to convert PDF to text" style="rounded=0;whiteSpace=wrap;html=1;align=center;" vertex="1" parent="1">
          <mxGeometry x="430" y="420" width="120" height="50" as="geometry" />
        </mxCell>
        <mxCell id="MSERcW_ycNlpQCD9DCjj-60" value="" style="edgeStyle=orthogonalEdgeStyle;rounded=0;orthogonalLoop=1;jettySize=auto;html=1;" edge="1" parent="1" source="MSERcW_ycNlpQCD9DCjj-57" target="MSERcW_ycNlpQCD9DCjj-59">
          <mxGeometry relative="1" as="geometry" />
        </mxCell>
        <mxCell id="MSERcW_ycNlpQCD9DCjj-57" value="Store the extracted data to temporary variable" style="rounded=0;whiteSpace=wrap;html=1;align=center;" vertex="1" parent="1">
          <mxGeometry x="430" y="520" width="120" height="50" as="geometry" />
        </mxCell>
        <mxCell id="MSERcW_ycNlpQCD9DCjj-59" value="Extraction of Keywords from various languages" style="rounded=0;whiteSpace=wrap;html=1;align=center;" vertex="1" parent="1">
          <mxGeometry x="430" y="620" width="120" height="50" as="geometry" />
        </mxCell>
      </root>
    </mxGraphModel>
  </diagram>
</mxfile>
